<svg width="110" height="18" viewBox="0 0 110 18" xmlns="http://www.w3.org/2000/svg">
    <g fill="#BDBB83" fill-rule="evenodd">
        <path d="m9 13.5-5.29 2.781 1.01-5.89L.44 6.219l5.915-.86L9 0l2.645 5.36 5.915.859-4.28 4.172 1.01 5.89zM32 13.5l-5.29 2.781 1.01-5.89-4.28-4.172 5.915-.86L32 0l2.645 5.36 5.915.859-4.28 4.172 1.01 5.89zM55 13.5l-5.29 2.781 1.01-5.89-4.28-4.172 5.915-.86L55 0l2.645 5.36 5.915.859-4.28 4.172 1.01 5.89zM78 13.5l-5.29 2.781 1.01-5.89-4.28-4.172 5.915-.86L78 0l2.645 5.36 5.915.859-4.28 4.172 1.01 5.89zM101 13.5l-5.29 2.781 1.01-5.89-4.28-4.172 5.915-.86L101 0l2.645 5.36 5.915.859-4.28 4.172 1.01 5.89z"/>
    </g>
</svg>
