<svg width="18" height="18" viewBox="0 0 18 18" xmlns="http://www.w3.org/2000/svg">
    <path d="M9 0a9 9 0 1 1 0 18A9 9 0 0 1 9 0zm2.027 4.765c-.386 0-.745.095-1.076.285-.33.19-.593.451-.786.784-.193.332-.29.689-.29 1.069 0 .163.015.326.042.488a6.085 6.085 0 0 1-2.492-.651A5.97 5.97 0 0 1 4.45 5.152c-.206.339-.31.695-.31 1.069 0 .373.09.716.269 1.028.18.312.414.57.703.774a2.068 2.068 0 0 1-.972-.285v.04c0 .503.166.95.496 1.344.331.394.745.645 1.241.754-.193.04-.386.06-.579.06-.124 0-.255-.006-.393-.02.138.421.39.77.755 1.049.366.278.79.417 1.272.417-.8.611-1.703.917-2.71.917-.192 0-.364-.007-.516-.02a6.094 6.094 0 0 0 3.33.956c1.268 0 2.391-.319 3.37-.957a5.847 5.847 0 0 0 2.089-2.3c.482-.91.724-1.854.724-2.83 0-.123-.007-.211-.02-.266a4.733 4.733 0 0 0 1.095-1.12 4.72 4.72 0 0 1-1.24.347c.468-.285.785-.68.95-1.181-.427.244-.889.414-1.385.509a2.457 2.457 0 0 0-.713-.489 2.1 2.1 0 0 0-.88-.183z" fill="#BDBB83" fill-rule="evenodd"/>
</svg>
