<svg width="25" height="25" viewBox="0 0 25 25" xmlns="http://www.w3.org/2000/svg">
    <path d="M12.5 0C19.404 0 25 5.596 25 12.5S19.404 25 12.5 25 0 19.404 0 12.5 5.596 0 12.5 0zm.321 5.147h-.642a60.66 60.66 0 0 0-2.748.05c-.624.032-1.166.125-1.625.278a3.826 3.826 0 0 0-1.428.903c-.405.405-.706.88-.903 1.428-.153.46-.246 1.001-.279 1.625-.033.623-.049 1.647-.049 3.069v.321a60.66 60.66 0 0 0 .05 2.748c.032.624.125 1.166.278 1.625.197.547.498 1.023.903 1.428s.88.695 1.428.87c.46.175 1.001.279 1.625.312.623.033 1.647.049 3.069.049h.321a60.66 60.66 0 0 0 2.748-.05c.624-.032 1.166-.125 1.625-.278a3.826 3.826 0 0 0 1.428-.903c.405-.405.706-.88.903-1.428.153-.46.246-1.001.279-1.625.033-.623.049-1.647.049-3.069v-.628a81.35 81.35 0 0 0-.033-2.425c-.044-.634-.142-1.182-.295-1.641a3.826 3.826 0 0 0-.903-1.428 3.826 3.826 0 0 0-1.428-.903c-.46-.153-1.001-.246-1.625-.279-.623-.033-1.647-.049-3.069-.049zm.489 1.313c.739.003 1.322.013 1.75.033.832.044 1.423.131 1.773.263a2.37 2.37 0 0 1 1.411 1.411c.132.35.22.941.263 1.773.022.46.033 1.138.033 2.035v1.335c-.003.739-.013 1.322-.033 1.75-.044.81-.131 1.401-.263 1.773-.262.656-.733 1.127-1.411 1.411-.35.132-.941.22-1.773.263-.46.022-1.138.033-2.035.033H11.69a43.555 43.555 0 0 1-1.75-.033c-.81-.044-1.401-.131-1.773-.263-.656-.262-1.127-.733-1.411-1.411-.132-.372-.22-.963-.263-1.773a47.891 47.891 0 0 1-.033-2.035V11.69c.003-.739.013-1.322.033-1.75.044-.832.131-1.423.263-1.773a2.37 2.37 0 0 1 1.411-1.411c.372-.132.963-.22 1.773-.263.481-.022 1.16-.033 2.035-.033zm-.81 2.265c-.678 0-1.308.17-1.887.509-.58.339-1.04.799-1.38 1.379-.338.58-.508 1.209-.508 1.887 0 .678.17 1.308.509 1.887.339.58.799 1.04 1.379 1.38.58.338 1.209.508 1.887.508.678 0 1.308-.17 1.887-.509.58-.339 1.04-.799 1.38-1.379.338-.58.508-1.209.508-1.887 0-.678-.17-1.308-.509-1.887a3.786 3.786 0 0 0-1.379-1.38 3.673 3.673 0 0 0-1.887-.508zm0 1.313c.678 0 1.258.24 1.74.722.481.482.722 1.062.722 1.74 0 .678-.24 1.258-.722 1.74a2.371 2.371 0 0 1-1.74.722c-.678 0-1.258-.24-1.74-.722a2.371 2.371 0 0 1-.722-1.74c0-.678.24-1.258.722-1.74a2.371 2.371 0 0 1 1.74-.722zm3.94-2.363a.852.852 0 0 0-.625.262.852.852 0 0 0-.262.624c0 .24.087.449.262.624a.852.852 0 0 0 .624.262.8.8 0 0 0 .607-.262c.164-.175.257-.383.28-.624a.852.852 0 0 0-.263-.624.852.852 0 0 0-.624-.262z" fill="#BDBB83" fill-rule="evenodd"/>
</svg>
